<svg width="394" height="85" viewBox="0 0 394 85" fill="none" xmlns="http://www.w3.org/2000/svg">
<path d="M42.96 0.139998H46.04C69.28 0.139998 88.25 19.11 88.25 42.35C88.25 54.39 83.14 65.24 75.02 73.01L86.64 84.63H66.97L63.33 80.85C58.01 83.23 52.13 84.63 46.04 84.63H42.96C19.72 84.63 0.75 65.59 0.75 42.35C0.75 19.11 19.72 0.139998 42.96 0.139998ZM61.44 59.43L65.29 63.21C70.89 58.03 74.39 50.61 74.39 42.35C74.39 26.74 61.65 14 46.04 14H42.96C27.35 14 14.61 26.74 14.61 42.35C14.61 57.96 27.35 70.77 42.96 70.77H46.04C48.21 70.77 50.38 70.49 52.48 70L41.84 59.43H61.44ZM91.7363 22.82H105.596V36.68V42.14V56.56C105.596 64.33 112.036 70.77 119.806 70.77C127.506 70.77 133.946 64.33 133.946 56.56V42.14V36.68V22.82H147.806V56.56C147.806 71.96 135.206 84.63 119.806 84.63C104.406 84.63 91.7363 71.96 91.7363 56.56V22.82ZM151.277 22.82H165.137V84.63H151.277V22.82ZM158.207 0.139998C162.057 0.139998 165.137 3.22 165.137 7.07C165.137 10.85 162.057 14 158.207 14C154.427 14 151.277 10.85 151.277 7.07C151.277 3.22 154.427 0.139998 158.207 0.139998ZM168.641 36.75H203.361L191.041 53.83L178.791 70.84L168.711 84.7H185.861H230.521V70.84H195.801L208.121 53.83L220.441 36.75L230.451 22.89H213.371H168.641V36.75ZM247.852 22.82H233.992V49.77V84.63H247.852V70.77V49.77C247.852 42.56 253.732 36.68 260.872 36.68C268.082 36.68 273.962 42.56 273.962 49.77V70.77V84.63H287.822V70.77V49.77C287.822 42.56 293.772 36.68 300.912 36.68C308.052 36.68 313.932 42.56 313.932 49.77V70.77V84.63H327.862V49.77C327.862 34.93 315.682 22.82 300.912 22.82C293.002 22.82 285.792 26.25 280.892 31.78C275.922 26.25 268.852 22.82 260.872 22.82C256.182 22.82 251.702 24.01 247.852 26.25V22.82ZM347.856 44.52C350.936 39.76 356.186 36.68 362.206 36.68C368.156 36.68 373.406 39.76 376.486 44.38C376.486 44.45 376.556 44.45 376.556 44.52H376.346H347.856ZM362.206 84.63C372.986 84.63 382.436 79.03 388.036 70.77L376.486 63C373.406 67.69 368.156 70.77 362.206 70.77C354.436 70.77 347.786 65.52 345.826 58.31H355.556H369.416H378.586H392.726C392.936 56.84 393.076 55.23 393.076 53.69C393.076 50.54 392.586 47.39 391.676 44.52C390.836 41.72 389.576 39.06 388.036 36.68C382.436 28.35 372.986 22.82 362.206 22.82C355.906 22.82 350.026 24.71 345.196 27.93C339.316 31.85 334.906 37.66 332.666 44.52C331.826 47.39 331.336 50.54 331.336 53.69C331.336 55.23 331.476 56.84 331.616 58.31C333.016 67.2 338.056 74.76 345.196 79.45C350.026 82.74 355.906 84.63 362.206 84.63Z" fill="url(#paint0_linear_48_4)"/>
<defs>
<linearGradient id="paint0_linear_48_4" x1="79" y1="41" x2="395" y2="52" gradientUnits="userSpaceOnUse">
<stop stop-color="#FAA916"/>
<stop offset="1" stop-color="#FBFFFE"/>
</linearGradient>
</defs>
</svg>
