<svg width="150" height="150" viewBox="0 0 150 150" fill="none" xmlns="http://www.w3.org/2000/svg">
<path fill-rule="evenodd" clip-rule="evenodd" d="M130.75 33.25C127.766 33.25 124.905 34.4353 122.795 36.545C120.685 38.6548 119.5 41.5163 119.5 44.5V52H142V44.5C142 41.5163 140.815 38.6548 138.705 36.545C136.595 34.4353 133.734 33.25 130.75 33.25ZM142 59.5H119.5V121.375L130.75 138.25L142 121.375V59.5ZM7 18.25V130.75C7 133.734 8.18526 136.595 10.295 138.705C12.4048 140.815 15.2663 142 18.25 142H100.75C103.734 142 106.595 140.815 108.705 138.705C110.815 136.595 112 133.734 112 130.75V18.25C112 15.2663 110.815 12.4048 108.705 10.295C106.595 8.18526 103.734 7 100.75 7H18.25C15.2663 7 12.4048 8.18526 10.295 10.295C8.18526 12.4048 7 15.2663 7 18.25ZM59.5 40.75C59.5 39.7554 59.8951 38.8016 60.5983 38.0984C61.3016 37.3951 62.2554 37 63.25 37H93.25C94.2446 37 95.1984 37.3951 95.9017 38.0984C96.6049 38.8016 97 39.7554 97 40.75C97 41.7446 96.6049 42.6984 95.9017 43.4016C95.1984 44.1049 94.2446 44.5 93.25 44.5H63.25C62.2554 44.5 61.3016 44.1049 60.5983 43.4016C59.8951 42.6984 59.5 41.7446 59.5 40.75ZM63.25 52C62.2554 52 61.3016 52.3951 60.5983 53.0983C59.8951 53.8016 59.5 54.7554 59.5 55.75C59.5 56.7446 59.8951 57.6984 60.5983 58.4017C61.3016 59.1049 62.2554 59.5 63.25 59.5H93.25C94.2446 59.5 95.1984 59.1049 95.9017 58.4017C96.6049 57.6984 97 56.7446 97 55.75C97 54.7554 96.6049 53.8016 95.9017 53.0983C95.1984 52.3951 94.2446 52 93.25 52H63.25ZM59.5 89.5C59.5 88.5054 59.8951 87.5516 60.5983 86.8483C61.3016 86.1451 62.2554 85.75 63.25 85.75H93.25C94.2446 85.75 95.1984 86.1451 95.9017 86.8483C96.6049 87.5516 97 88.5054 97 89.5C97 90.4946 96.6049 91.4484 95.9017 92.1516C95.1984 92.8549 94.2446 93.25 93.25 93.25H63.25C62.2554 93.25 61.3016 92.8549 60.5983 92.1516C59.8951 91.4484 59.5 90.4946 59.5 89.5ZM63.25 100.75C62.2554 100.75 61.3016 101.145 60.5983 101.848C59.8951 102.552 59.5 103.505 59.5 104.5C59.5 105.495 59.8951 106.448 60.5983 107.152C61.3016 107.855 62.2554 108.25 63.25 108.25H93.25C94.2446 108.25 95.1984 107.855 95.9017 107.152C96.6049 106.448 97 105.495 97 104.5C97 103.505 96.6049 102.552 95.9017 101.848C95.1984 101.145 94.2446 100.75 93.25 100.75H63.25ZM29.5 89.5V100.75H40.75V89.5H29.5ZM25.75 82H44.5C45.4946 82 46.4484 82.3951 47.1517 83.0983C47.8549 83.8016 48.25 84.7554 48.25 85.75V104.5C48.25 105.495 47.8549 106.448 47.1517 107.152C46.4484 107.855 45.4946 108.25 44.5 108.25H25.75C24.7554 108.25 23.8016 107.855 23.0983 107.152C22.3951 106.448 22 105.495 22 104.5V85.75C22 84.7554 22.3951 83.8016 23.0983 83.0983C23.8016 82.3951 24.7554 82 25.75 82V82ZM50.9013 43.4013C51.5843 42.694 51.9623 41.7467 51.9538 40.7635C51.9452 39.7803 51.5509 38.8397 50.8556 38.1444C50.1603 37.4491 49.2197 37.0548 48.2365 37.0462C47.2533 37.0377 46.306 37.4157 45.5987 38.0987L33.25 50.4475L28.4012 45.5987C27.694 44.9157 26.7467 44.5377 25.7635 44.5462C24.7803 44.5548 23.8397 44.9491 23.1444 45.6444C22.4491 46.3397 22.0548 47.2803 22.0462 48.2635C22.0377 49.2467 22.4157 50.194 23.0988 50.9013L33.25 61.0525L50.9013 43.4013Z" fill="#1A9603"/>
</svg>
