<svg width="230" height="230" viewBox="0 0 230 230" fill="none" xmlns="http://www.w3.org/2000/svg">
<path d="M20.4979 35.8252L23.3594 36.499V62.7783C20.2148 64.6426 17.9688 67.9668 17.9688 71.875C17.9688 75.6372 20.0464 78.784 22.9641 80.7471L15.9473 108.711C15.1611 111.811 16.9041 115 19.3748 115H38.1297C40.6004 115 42.3411 111.799 41.555 109.115L34.5359 80.7695C37.4559 78.793 39.5312 75.6484 39.5312 71.875C39.5312 67.9443 37.2852 64.6336 34.1406 62.7783V39.1404L57.5 44.7557L57.5005 71.875C57.5005 103.657 83.2182 129.375 115 129.375C146.783 129.375 172.096 103.657 172.096 71.875L172.5 44.7512L209.448 35.8252C217.646 33.8599 217.646 23.6963 209.448 21.6748L123.917 1.01074C118.077 -0.336914 111.959 -0.336914 106.114 1.01074L20.4934 21.6748C12.3535 23.6424 12.3535 33.8621 20.4979 35.8252V35.8252ZM161.359 140.516L115 186.875L68.6406 140.516C37.2268 150.533 14.375 179.687 14.375 214.412C14.375 223.037 21.3514 230 29.9494 230H200.069C208.662 230 215.625 223.037 215.625 214.412C215.625 179.687 192.76 150.533 161.359 140.516Z" fill="#FAA916"/>
</svg>
