<svg width="150" height="150" viewBox="0 0 150 150" fill="none" xmlns="http://www.w3.org/2000/svg">
<path d="M29.2274 10.6616C5.57386 21.336 14.3075 56.3917 40.1444 54.2083C64.5257 52.1462 69.2564 19.7591 46.5733 10.1764C40.6296 7.75036 35.1711 7.87166 29.2274 10.6616Z" fill="#6D676E"/>
<path d="M94.7294 13.4515C80.416 18.7887 70.712 32.7382 70.8333 48.022C71.0759 81.8647 112.561 97.0272 134.637 71.3116C149.436 53.9657 143.856 25.8241 123.72 15.6349C119.111 13.3302 115.593 12.6024 108.072 12.3598C102.735 12.2385 96.7915 12.7237 94.7294 13.4515ZM117.291 17.4544C137.67 24.3685 145.554 49.8415 132.575 66.8235C121.658 81.1369 101.765 84.1694 87.8153 73.495C71.925 61.365 70.3481 39.2884 84.2976 25.3389C93.2738 16.3627 105.525 13.4515 117.291 17.4544Z" fill="#6D676E"/>
<path d="M105.04 21.6999C105.04 24.7324 105.525 25.4602 107.223 25.0963C108.558 24.8537 109.285 23.6407 109.285 21.6999C109.285 19.7591 108.558 18.5461 107.223 18.3035C105.525 17.9396 105.04 18.6674 105.04 21.6999Z" fill="#6D676E"/>
<path d="M91.0903 22.913C90.2412 24.2473 92.5459 28.978 94.1228 28.978C95.9423 28.978 96.7914 26.6733 95.9423 24.126C95.0932 21.5787 92.3033 20.8509 91.0903 22.913Z" fill="#6D676E"/>
<path d="M118.383 23.5195C116.806 25.4603 117.534 28.978 119.475 28.978C121.173 28.978 123.478 24.3686 122.628 22.913C121.537 21.2148 120.081 21.4574 118.383 23.5195Z" fill="#6D676E"/>
<path d="M80.7798 33.7086C80.7798 36.4985 85.2679 38.318 87.33 36.2559C88.3004 35.2855 88.0578 34.4364 86.3596 33.1021C83.0845 30.6761 80.7798 30.9187 80.7798 33.7086Z" fill="#6D676E"/>
<path d="M96.5487 32.7382C96.5487 33.5873 98.2469 36.8624 100.188 40.1375C103.099 44.8682 103.584 46.5664 102.614 47.7794C100.916 49.8415 102.25 52.3888 104.433 51.5397C105.404 51.1758 106.738 51.661 107.466 52.6314C109.528 55.0574 112.439 53.4805 111.59 50.3267C111.105 48.1433 111.833 47.2942 115.35 45.596C119.596 43.5339 121.9 40.5014 120.324 38.9245C119.838 38.5606 117.17 39.4097 114.38 40.8653C111.59 42.3209 108.921 43.5339 108.436 43.5339C107.951 43.5339 106.131 40.8653 104.191 37.4689C102.129 33.8299 99.9451 31.4039 98.7321 31.4039C97.5191 31.4039 96.5487 32.0104 96.5487 32.7382Z" fill="#6D676E"/>
<path d="M127.602 33.7087C126.267 35.1643 125.904 36.256 126.753 36.8625C128.936 38.0755 133.06 36.256 132.696 34.0726C132.09 31.2827 130.028 31.0401 127.602 33.7087Z" fill="#6D676E"/>
<path d="M77.3834 48.0222C77.626 49.4778 78.839 50.2056 80.7798 50.2056C82.7206 50.2056 83.9336 49.4778 84.1762 48.0222C84.5401 46.4453 83.8123 45.9601 80.7798 45.9601C77.7473 45.9601 77.0195 46.4453 77.3834 48.0222Z" fill="#6D676E"/>
<path d="M129.3 47.7794C129.3 48.9924 130.513 49.5989 132.939 49.5989C135.365 49.5989 136.578 48.9924 136.578 47.7794C136.578 46.5664 135.365 45.9599 132.939 45.9599C130.513 45.9599 129.3 46.5664 129.3 47.7794Z" fill="#6D676E"/>
<path d="M82.1143 59.1817C80.4161 60.2734 81.0226 64.155 82.9634 64.155C85.0255 64.155 88.4219 60.8799 87.5728 59.5456C86.4811 57.8474 84.419 57.7261 82.1143 59.1817Z" fill="#6D676E"/>
<path d="M127.117 60.0308C127.359 61.1225 128.451 62.6994 129.664 63.4272C132.696 65.368 135.001 61.729 132.09 59.5456C129.179 57.4835 126.631 57.7261 127.117 60.0308Z" fill="#6D676E"/>
<path d="M117.776 67.7941C116.685 69.6136 118.262 73.8591 120.202 73.8591C122.75 73.8591 123.477 71.797 122.022 69.0071C120.566 66.3385 118.989 65.8533 117.776 67.7941Z" fill="#6D676E"/>
<path d="M91.9397 69.2497C89.9989 71.1905 90.1202 73.4952 92.3036 74.3443C94.0018 74.9508 96.5491 71.9183 96.5491 69.1284C96.5491 67.3089 93.7592 67.4302 91.9397 69.2497Z" fill="#6D676E"/>
<path d="M105.04 73.859C105.04 76.1637 105.646 77.498 106.738 77.498C109.164 77.498 110.256 75.5572 109.285 72.646C108.072 68.7644 105.04 69.6135 105.04 73.859Z" fill="#6D676E"/>
<path d="M19.5235 62.0928C17.5827 63.0632 14.9141 65.004 13.7011 66.3384C8.7278 71.9182 8.1213 76.6489 8 110.492V143H26.8015H45.4817L45.8456 125.048L46.2095 107.216L49.6059 112.311C51.5467 114.98 54.4579 117.891 56.2774 118.619C58.0969 119.225 68.5287 120.802 79.567 122.015C91.8184 123.228 100.188 124.684 101.28 125.654C102.493 126.988 103.221 126.988 104.555 125.897C105.525 125.169 106.132 123.835 106.132 123.107C106.01 122.379 106.496 120.196 107.223 118.376C109.649 112.675 107.587 108.187 101.158 104.79C99.7029 104.184 97.7621 101.151 96.5491 98.119C92.6675 88.2937 86.4812 88.5363 89.9989 98.4829C90.9693 101.151 91.6971 103.335 91.6971 103.577C91.6971 104.184 65.7388 100.545 65.011 99.6959C64.5258 99.2107 58.5821 91.2049 51.9106 82.1074C45.1178 73.0099 38.2037 64.5188 36.5055 63.4271C32.3813 60.7585 24.0116 60.152 19.5235 62.0928Z" fill="#6D676E"/>
<path d="M54.094 135.722V143H96.549H139.004V135.722V128.444H96.549H54.094V135.722Z" fill="#6D676E"/>
</svg>
